<?xml version="1.0" encoding="utf-8"?>
<!-- Generator: Adobe Illustrator 15.1.0, SVG Export Plug-In . SVG Version: 6.00 Build 0)  -->
<!DOCTYPE svg PUBLIC "-//W3C//DTD SVG 1.0//EN" "http://www.w3.org/TR/2001/REC-SVG-20010904/DTD/svg10.dtd">
<svg version="1.0" id="Layer_1" xmlns="http://www.w3.org/2000/svg" xmlns:xlink="http://www.w3.org/1999/xlink" x="0px" y="0px"
	 width="50px" height="50px" viewBox="0 0 50 50" enable-background="new 0 0 50 50" xml:space="preserve">
<circle fill="#E84C28" cx="25" cy="25" r="25"/>
<path fill="#F1F1F1" d="M41.212,14.944c-1.191,0.53-2.475,0.887-3.82,1.047c1.374-0.822,2.429-2.126,2.924-3.68
	c-1.284,0.762-2.708,1.316-4.224,1.614c-1.213-1.292-2.941-2.101-4.855-2.101c-3.673,0-6.651,2.979-6.651,6.653
	c0,0.52,0.059,1.028,0.172,1.515c-5.528-0.278-10.43-2.926-13.711-6.95c-0.573,0.982-0.9,2.125-0.9,3.345
	c0,2.309,1.174,4.345,2.958,5.537c-1.089-0.035-2.116-0.334-3.013-0.833c0,0.028,0,0.056,0,0.084c0,3.223,2.293,5.911,5.336,6.523
	c-0.558,0.15-1.146,0.231-1.753,0.231c-0.428,0-0.846-0.04-1.251-0.119c0.847,2.643,3.304,4.567,6.213,4.619
	c-2.276,1.785-5.144,2.849-8.261,2.849c-0.537,0-1.067-0.031-1.587-0.094c2.944,1.888,6.441,2.989,10.197,2.989
	c12.236,0,18.926-10.137,18.926-18.926c0-0.289-0.006-0.576-0.019-0.862C39.193,17.451,40.32,16.278,41.212,14.944z"/>
</svg>
