<?xml version="1.0" encoding="utf-8"?>
<!-- Generator: Adobe Illustrator 15.1.0, SVG Export Plug-In . SVG Version: 6.00 Build 0)  -->
<!DOCTYPE svg PUBLIC "-//W3C//DTD SVG 1.0//EN" "http://www.w3.org/TR/2001/REC-SVG-20010904/DTD/svg10.dtd">
<svg version="1.0" id="Layer_1" xmlns="http://www.w3.org/2000/svg" xmlns:xlink="http://www.w3.org/1999/xlink" x="0px" y="0px"
	 width="50px" height="50px" viewBox="0 0 50 50" enable-background="new 0 0 50 50" xml:space="preserve">
<circle fill="#E84C28" cx="25" cy="25" r="25"/>
<path fill="#F1F1F1" d="M35.178,8.409H14.822c-3.537,0-6.413,2.876-6.413,6.412v6.773v13.584c0,3.536,2.876,6.412,6.413,6.412H35.18
	c3.535,0,6.412-2.876,6.412-6.412V21.595V14.82C41.59,11.284,38.715,8.409,35.178,8.409z M37.018,12.233l0.734-0.003v0.73v4.894
	l-5.605,0.019l-0.02-5.624L37.018,12.233z M20.264,21.595c1.063-1.471,2.787-2.436,4.736-2.436s3.674,0.965,4.734,2.436
	c0.692,0.959,1.107,2.133,1.107,3.405c0,3.221-2.623,5.84-5.842,5.84c-3.221,0-5.84-2.619-5.84-5.84
	C19.16,23.728,19.573,22.554,20.264,21.595z M38.357,35.179c0,1.754-1.426,3.179-3.18,3.179H14.822c-1.754,0-3.18-1.425-3.18-3.179
	V21.595h4.953c-0.428,1.052-0.668,2.201-0.668,3.405c0,5.002,4.07,9.073,9.073,9.073c5.004,0,9.072-4.071,9.072-9.073
	c0-1.204-0.24-2.354-0.668-3.405h4.953V35.179z"/>
</svg>
