<?xml version="1.0" encoding="utf-8"?>
<!-- Generator: Adobe Illustrator 15.1.0, SVG Export Plug-In . SVG Version: 6.00 Build 0)  -->
<!DOCTYPE svg PUBLIC "-//W3C//DTD SVG 1.0//EN" "http://www.w3.org/TR/2001/REC-SVG-20010904/DTD/svg10.dtd">
<svg version="1.0" id="Layer_1" xmlns="http://www.w3.org/2000/svg" xmlns:xlink="http://www.w3.org/1999/xlink" x="0px" y="0px"
	 width="134.301px" height="131px" viewBox="0 0 134.301 131" enable-background="new 0 0 134.301 131" xml:space="preserve">
<g>
	<path fill-rule="evenodd" clip-rule="evenodd" fill="#1D1D1B" d="M68.801,0c36.176,0,65.5,29.325,65.5,65.5s-29.324,65.5-65.5,65.5
		c-36.174,0-65.5-29.325-65.5-65.5S32.626,0,68.801,0z"/>
</g>
<g>
	<path fill="#F4F1ED" d="M34.721,81l10.657-25.298v-6.721H19.215v8.448h15.025L24.112,81H34.721z"/>
	<path fill="#F4F1ED" d="M57.583,81V70.919h7.393c7.489,0,11.521-4.992,11.521-10.944c0-6.001-4.032-10.993-11.521-10.993H47.886V81
		H57.583z M63.727,62.471h-6.145V57.43h6.145c1.632,0,2.928,0.816,2.928,2.545C66.655,61.654,65.359,62.471,63.727,62.471z"/>
	<path fill="#F4F1ED" d="M116.797,81V48.981h-13.393l-5.617,15.361l-5.615-15.361H78.778V81h9.696V61.75L95.627,81h4.32l7.153-19.25
		V81H116.797z"/>
</g>
</svg>
