<?xml version="1.0" encoding="utf-8"?>
<!-- Generator: Adobe Illustrator 15.1.0, SVG Export Plug-In . SVG Version: 6.00 Build 0)  -->
<!DOCTYPE svg PUBLIC "-//W3C//DTD SVG 1.0//EN" "http://www.w3.org/TR/2001/REC-SVG-20010904/DTD/svg10.dtd">
<svg version="1.0" id="Layer_1" xmlns="http://www.w3.org/2000/svg" xmlns:xlink="http://www.w3.org/1999/xlink" x="0px" y="0px"
	 width="227.5px" height="43.197px" viewBox="0 0 227.5 43.197" enable-background="new 0 0 227.5 43.197" xml:space="preserve">
<g>
	<path fill="#F1F1F1" d="M16.852,29.745c-1.307,1.307-1.965,3.018-1.965,4.731c0,1.722,0.651,3.444,1.966,4.758
		c1.31,1.312,3.027,1.966,4.745,1.966s3.434-0.655,4.745-1.966c1.31-1.31,1.966-3.024,1.966-4.741c0-1.719-0.654-3.438-1.965-4.748
		c-0.046-0.046-0.046-0.12,0-0.167c0.046-0.045,0.121-0.045,0.167,0c1.357,1.357,2.034,3.137,2.034,4.915
		c0,1.776-0.679,3.553-2.034,4.908c-1.356,1.355-3.134,2.034-4.911,2.034c-1.777,0-3.556-0.678-4.911-2.034
		c-1.36-1.36-2.035-3.144-2.035-4.925c0-1.773,0.682-3.546,2.034-4.898c0.684-0.684,2.7-2.699,4.545-4.544
		c0.572-0.573,1.128-1.129,1.623-1.623l-1.246-1.246c-0.495,0.494-1.05,1.051-1.623,1.623c-1.845,1.846-3.862,3.861-4.545,4.545
		c-1.69,1.689-2.552,3.921-2.55,6.144c-0.002,2.222,0.848,4.469,2.55,6.17c1.695,1.697,3.935,2.553,6.157,2.551
		c0.002,0,0.005,0,0.008,0c2.219,0,4.455-0.855,6.148-2.551c1.695-1.693,2.552-3.931,2.551-6.153c0.002-2.222-0.852-4.464-2.55-6.16
		c-0.734-0.734-1.924-0.734-2.658,0c-0.734,0.733-0.734,1.924,0,2.658c0.97,0.971,1.447,2.228,1.449,3.502
		c-0.002,1.271-0.48,2.525-1.45,3.496c-0.971,0.97-2.227,1.447-3.499,1.449c-1.273-0.002-2.528-0.479-3.5-1.449
		c-0.971-0.973-1.447-2.232-1.45-3.513c0.002-1.265,0.481-2.516,1.45-3.486c0.896-0.896,4.079-4.078,6.168-6.167l-1.246-1.246
		C20.93,25.666,17.747,28.85,16.852,29.745z"/>
	<path fill="#F1F1F1" d="M13.619,26.512c-1.355,1.354-3.13,2.034-4.906,2.033c0,0-0.001,0-0.001,0
		c-1.778,0.001-3.558-0.677-4.915-2.033c-1.363-1.364-2.034-3.153-2.034-4.939c0-1.769,0.686-3.535,2.035-4.884
		c1.354-1.355,3.13-2.035,4.907-2.034c1.778,0,3.558,0.677,4.917,2.035l0.004,0.004c0.044,0.046,0.044,0.12-0.001,0.165
		l-5.056,5.056h0c-0.046,0.046-0.121,0.046-0.167,0s-0.046-0.121,0-0.166l4.972-4.972c-1.301-1.26-2.985-1.887-4.67-1.887
		c-1.716,0-3.431,0.656-4.741,1.965c-1.304,1.304-1.965,3.01-1.966,4.718c0,1.727,0.648,3.455,1.966,4.772
		c1.312,1.312,3.029,1.966,4.749,1.966c1.716,0,3.432-0.656,4.741-1.965c0.684-0.684,2.7-2.7,4.545-4.545
		c0.573-0.572,1.128-1.128,1.623-1.623l-1.246-1.246c-0.495,0.495-1.05,1.051-1.623,1.624c-1.845,1.845-3.861,3.861-4.545,4.544
		c-0.97,0.969-2.226,1.447-3.496,1.449c-1.275-0.002-2.532-0.479-3.502-1.449c-0.972-0.974-1.447-2.236-1.45-3.527
		c0.001-1.255,0.481-2.503,1.45-3.472c0.97-0.97,2.224-1.448,3.495-1.45c0.657,0.001,1.309,0.128,1.919,0.384l-3.467,3.468
		c-0.734,0.734-0.734,1.923,0,2.657c0.734,0.734,1.924,0.734,2.658,0l5.056-5.055c0.729-0.73,0.736-1.904,0.015-2.643l-0.004-0.004
		l-0.015-0.016c-1.697-1.698-3.939-2.552-6.161-2.55c-2.222-0.002-4.459,0.855-6.153,2.55C0.866,17.126-0.001,19.351,0,21.573
		c-0.002,2.222,0.842,4.477,2.55,6.184c1.697,1.699,3.938,2.553,6.161,2.551c0.003,0,0.006,0,0.009,0
		c2.219,0,4.453-0.857,6.144-2.55c0.896-0.896,4.079-4.079,6.168-6.168l-1.246-1.246C17.697,22.433,14.514,25.616,13.619,26.512z"/>
	<path fill="#F1F1F1" d="M40.82,18.438l-3.17-3.171c-0.872-0.872-2.013-1.309-3.155-1.309c-1.146,0-2.291,0.436-3.165,1.309
		c-0.771,0.771-2.732,2.733-3.16,3.16c0.422,0.422,2.34,2.34,3.16,3.16l3.171,3.171c0.874,0.872,2.017,1.308,3.161,1.308
		c1.143,0,2.286-0.437,3.158-1.308c0.873-0.874,1.309-2.017,1.309-3.16C42.129,20.453,41.693,19.311,40.82,18.438z M39.574,23.512
		c-0.533,0.531-1.214,0.79-1.912,0.792c-0.701-0.002-1.383-0.261-1.916-0.792l-3.171-3.171c-0.45-0.45-1.231-1.231-1.914-1.914
		c0.695-0.694,1.487-1.487,1.914-1.914c0.534-0.532,1.216-0.791,1.919-0.793c0.695,0.002,1.375,0.26,1.909,0.792l3.171,3.171
		c0.532,0.533,0.791,1.215,0.792,1.914C40.365,22.296,40.106,22.978,39.574,23.512z"/>
	<path fill="#F1F1F1" d="M42.232,17.026l-3.171-3.171c-1.255-1.257-2.918-1.896-4.566-1.894c-1.648-0.002-3.316,0.633-4.577,1.894
		c-0.867,0.868-3.243,3.243-3.243,3.243l-1.329,1.329l1.329,1.329c0,0,2.319,2.319,3.243,3.243l3.171,3.171
		c1.258,1.26,2.925,1.896,4.573,1.894c0.002,0,0.005,0,0.008,0c1.646,0,3.307-0.637,4.562-1.893
		c1.259-1.259,1.896-2.924,1.894-4.573C44.128,19.949,43.491,18.283,42.232,17.026z M40.986,24.924
		c-0.917,0.917-2.122,1.377-3.325,1.377c-1.204,0-2.409-0.459-3.327-1.377l-3.171-3.171c-0.924-0.923-3.243-3.243-3.243-3.243
		l-0.083-0.083l0.083-0.083c0,0,2.375-2.375,3.243-3.243c0.919-0.919,2.125-1.378,3.331-1.378c1.202,0,2.404,0.461,3.321,1.378
		l3.171,3.171c0.918,0.918,1.378,2.123,1.377,3.326C42.364,22.8,41.904,24.005,40.986,24.924z"/>
	<path fill="#F1F1F1" d="M26.166,20.272c-0.001-0.001-0.002-0.003-0.004-0.004c-0.001-0.001-0.003-0.002-0.004-0.003l-1.9-1.9
		c1.126-1.126,2.685-2.685,3.5-3.5c1.697-1.695,2.553-3.935,2.55-6.157c0.002-2.222-0.854-4.462-2.55-6.157
		c-1.698-1.7-3.941-2.553-6.164-2.551c-2.222-0.002-4.458,0.856-6.151,2.551c-1.695,1.693-2.552,3.931-2.55,6.153
		c-0.002,2.222,0.852,4.463,2.55,6.16c0.735,0.735,2.182,2.182,3.3,3.301l0,0l0.199,0.198c-0.002,0.001-0.004,0.003-0.005,0.005
		l1.246,1.246c0.002-0.002,0.004-0.003,0.005-0.005c0.054,0.053,0.083,0.083,0.083,0.083l0.083,0.083
		c-0.001,0.001-0.003,0.003-0.005,0.005l1.246,1.246c0.002-0.001,0.003-0.003,0.005-0.005l0.576,0.576
		c-0.001,0.001-0.003,0.003-0.005,0.005l1.246,1.246c0.002-0.002,0.003-0.004,0.005-0.005l0.167,0.165
		c-0.002,0.002-0.004,0.004-0.005,0.006l1.246,1.245c0.001-0.001,0.003-0.003,0.005-0.005l8.328,8.328
		c0.367,0.367,0.848,0.551,1.329,0.551s0.962-0.184,1.329-0.551c0.734-0.734,0.734-1.924,0-2.658L26.166,20.272z M34.573,31.337
		c-0.023,0.023-0.053,0.034-0.083,0.034s-0.06-0.011-0.083-0.034L21.6,18.53l0,0l-0.036-0.036l-1.575-1.575c0,0,0,0,0,0
		c-1.119-1.119-2.565-2.566-3.3-3.3c-1.357-1.357-2.034-3.137-2.034-4.915c0-1.776,0.679-3.553,2.034-4.908
		c1.354-1.355,3.129-2.035,4.905-2.035c1.779,0,3.56,0.676,4.917,2.034c1.356,1.356,2.035,3.134,2.035,4.912
		c0,1.777-0.678,3.555-2.035,4.911c-1.242,1.242-4.213,4.213-4.745,4.745l12.807,12.807C34.618,31.217,34.618,31.291,34.573,31.337z
		"/>
	<path fill="#F1F1F1" d="M21.577,18.176l0.023,0.023c0.534-0.534,3.503-3.504,4.745-4.746c1.311-1.311,1.966-3.028,1.966-4.745
		c0-1.718-0.655-3.435-1.966-4.745c-1.312-1.312-3.032-1.966-4.751-1.966c-1.716,0-3.429,0.656-4.739,1.966
		s-1.965,3.025-1.965,4.742c0,1.718,0.654,3.436,1.965,4.748C18.022,14.621,20.985,17.583,21.577,18.176z M16.651,8.705
		c0.002-1.271,0.48-2.525,1.45-3.496c0.971-0.97,2.224-1.448,3.493-1.45c1.277,0.002,2.534,0.479,3.506,1.45
		c0.97,0.971,1.448,2.226,1.45,3.5c-0.002,1.272-0.48,2.528-1.45,3.5c-0.814,0.814-2.373,2.373-3.499,3.499
		c-1.141-1.141-2.72-2.72-3.5-3.5C17.13,11.235,16.653,9.979,16.651,8.705z"/>
</g>
<g>
	<path fill="#F1F1F1" d="M78.588,39.279v-9.084h-15.69v-3.768h15.329v-9.083H62.898v-3.407h15.69V4.854H52.472v34.425H78.588z"/>
	<path fill="#F1F1F1" d="M92.511,39.279V28.44h7.948c8.051,0,12.388-5.367,12.388-11.767c0-6.452-4.336-11.819-12.388-11.819H82.084
		v34.425H92.511z M99.117,19.357h-6.606v-5.42h6.606c1.754,0,3.148,0.877,3.148,2.736C102.265,18.479,100.872,19.357,99.117,19.357z
		"/>
	<path fill="#F1F1F1" d="M131.543,39.899c10.632,0,18.839-7.227,18.839-17.807s-8.207-17.807-18.839-17.807
		s-18.839,7.226-18.839,17.807S120.911,39.899,131.543,39.899z M131.543,30.712c-5.007,0-8.26-3.819-8.26-8.62
		c0-4.799,3.253-8.619,8.26-8.619c5.006,0,8.257,3.82,8.257,8.619C139.8,26.893,136.549,30.712,131.543,30.712z"/>
	<path fill="#F1F1F1" d="M169.489,39.899c9.033,0,13.627-5.471,15.64-10.065l-8.98-4.129c-0.878,2.684-3.562,5.007-6.659,5.007
		c-5.006,0-8.361-3.819-8.361-8.62c0-4.799,3.355-8.619,8.361-8.619c3.098,0,5.781,2.322,6.659,5.006l8.98-4.181
		c-2.065-4.749-6.606-10.013-15.64-10.013c-10.786,0-18.941,7.175-18.941,17.807C150.548,32.673,158.703,39.899,169.489,39.899z"/>
	<path fill="#F1F1F1" d="M219.805,39.279V4.854h-10.427v12.181h-12.335V4.854h-10.427v34.425h10.427V26.118h12.335v13.161H219.805z"
		/>
</g>
</svg>
