<?xml version="1.0" encoding="utf-8"?>
<!-- Generator: Adobe Illustrator 15.1.0, SVG Export Plug-In . SVG Version: 6.00 Build 0)  -->
<!DOCTYPE svg PUBLIC "-//W3C//DTD SVG 1.0//EN" "http://www.w3.org/TR/2001/REC-SVG-20010904/DTD/svg10.dtd">
<svg version="1.0" id="Layer_1" xmlns="http://www.w3.org/2000/svg" xmlns:xlink="http://www.w3.org/1999/xlink" x="0px" y="0px"
	 width="134.301px" height="131px" viewBox="0 0 134.301 131" enable-background="new 0 0 134.301 131" xml:space="preserve">
<g>
	<path fill-rule="evenodd" clip-rule="evenodd" fill="#F4F1ED" d="M68.801,8.805c31.313,0,56.695,25.383,56.695,56.695
		c0,31.312-25.382,56.695-56.695,56.695c-31.312,0-56.695-25.383-56.695-56.695C12.106,34.188,37.489,8.805,68.801,8.805z"/>
</g>
<g>
	<path fill-rule="evenodd" clip-rule="evenodd" fill="#1D1D1B" d="M68.801,14.305c28.275,0,51.195,22.921,51.195,51.195
		s-22.92,51.195-51.195,51.195c-28.274,0-51.195-22.921-51.195-51.195S40.527,14.305,68.801,14.305z"/>
</g>
<polyline fill="none" stroke="#F4F1ED" stroke-width="4" stroke-linecap="round" stroke-miterlimit="10" points="29.419,62.212 
	67.64,84.747 67.64,84.747 105.603,61.885 "/>
</svg>
